<svg preserveAspectRatio="none" width="100%" height="100%" overflow="visible" style="display: block;" viewBox="0 0 308.723 5.00648" fill="none" xmlns="http://www.w3.org/2000/svg">
<g id="Frame 99">
<circle id="Ellipse 22" cx="2.50316" cy="2.50316" r="2.50316" fill="var(--fill-0, white)"/>
<circle id="Ellipse 23" cx="13.3503" cy="2.50332" r="2.50316" fill="var(--fill-0, white)"/>
<circle id="Ellipse 24" cx="24.1974" cy="2.50332" r="2.50316" fill="var(--fill-0, white)"/>
<circle id="Ellipse 25" cx="35.0442" cy="2.50332" r="2.50316" fill="var(--fill-0, white)"/>
<circle id="Ellipse 26" cx="45.8912" cy="2.50316" r="2.50316" fill="var(--fill-0, white)"/>
<circle id="Ellipse 27" cx="56.7384" cy="2.50332" r="2.50316" fill="var(--fill-0, white)"/>
<circle id="Ellipse 28" cx="67.5855" cy="2.50332" r="2.50316" fill="var(--fill-0, white)"/>
<circle id="Ellipse 29" cx="78.4323" cy="2.50332" r="2.50316" fill="var(--fill-0, white)"/>
<circle id="Ellipse 30" cx="89.2794" cy="2.50332" r="2.50316" fill="var(--fill-0, white)"/>
<circle id="Ellipse 31" cx="100.126" cy="2.50332" r="2.50316" fill="var(--fill-0, white)"/>
<circle id="Ellipse 32" cx="110.973" cy="2.50332" r="2.50316" fill="var(--fill-0, white)"/>
<circle id="Ellipse 33" cx="121.82" cy="2.50316" r="2.50316" fill="var(--fill-0, white)"/>
<circle id="Ellipse 34" cx="132.667" cy="2.50332" r="2.50316" fill="var(--fill-0, white)"/>
<circle id="Ellipse 37" cx="143.514" cy="2.50316" r="2.50316" fill="var(--fill-0, white)"/>
<circle id="Ellipse 35" cx="154.361" cy="2.50332" r="2.50316" fill="var(--fill-0, white)"/>
<circle id="Ellipse 36" cx="165.208" cy="2.50332" r="2.50316" fill="var(--fill-0, white)"/>
<circle id="Ellipse 38" cx="176.055" cy="2.50316" r="2.50316" fill="var(--fill-0, white)"/>
<circle id="Ellipse 39" cx="186.903" cy="2.50332" r="2.50316" fill="var(--fill-0, white)"/>
<circle id="Ellipse 40" cx="197.749" cy="2.50332" r="2.50316" fill="var(--fill-0, white)"/>
<circle id="Ellipse 41" cx="208.596" cy="2.50316" r="2.50316" fill="var(--fill-0, white)"/>
<circle id="Ellipse 42" cx="219.444" cy="2.50332" r="2.50316" fill="var(--fill-0, white)"/>
<circle id="Ellipse 43" cx="230.291" cy="2.50332" r="2.50316" fill="var(--fill-0, white)"/>
<circle id="Ellipse 44" cx="241.137" cy="2.50332" r="2.50316" fill="var(--fill-0, white)"/>
<circle id="Ellipse 45" cx="251.984" cy="2.50316" r="2.50316" fill="var(--fill-0, white)"/>
<circle id="Ellipse 46" cx="262.832" cy="2.50332" r="2.50316" fill="var(--fill-0, white)"/>
<circle id="Ellipse 47" cx="273.678" cy="2.50316" r="2.50316" fill="var(--fill-0, white)"/>
<circle id="Ellipse 48" cx="284.526" cy="2.50332" r="2.50316" fill="var(--fill-0, white)"/>
<circle id="Ellipse 49" cx="295.373" cy="2.50332" r="2.50316" fill="var(--fill-0, white)"/>
<circle id="Ellipse 50" cx="306.22" cy="2.50316" r="2.50316" fill="var(--fill-0, white)"/>
</g>
</svg>
